# xmcd
#
# Track frame offsets: 
#        150
#        14213
#        33595
#        53096
#        68048
#        84624
#        96829
#        109834
#        124553
#        140506
#        152404
#        174115
#        186508
#        205668
#
# Disc length: 2945 seconds
#
# Revision: 0
# Processed by: cddbd v1.5.2PL0 Copyright (c) Steve Scherf et al.
# Submitted via: ExactAudioCopy v1.3
#
DISCID=bb0b7f0e
DTITLE=Deryl Dodd - Long Hard Ride
DYEAR=2017
DGENRE=Country
TTITLE0=The Ride
TTITLE1=Loveletters and Cigarettes (feat. Cody Jinks)
TTITLE2=Sundown (feat. Wade Bowen)
TTITLE3=Let Me Be (feat. William Clark Green)
TTITLE4=A Bitter End (feat. Randy Rogers)
TTITLE5=Pearl Snaps (feat. Stoney La Rue)
TTITLE6=Drinkin' bout You (feat. Matt Hillyer)
TTITLE7=That's How I Got to Memphis (feat. Radney Foster)
TTITLE8=She'll Have You Back (feat. Roger Creager)
TTITLE9=Honky Tonk Champagne (feat. Kevin Fowler)
TTITLE10=Who Am I Not to Be (feat. Bonnie Bishop)
TTITLE11=I'll Fly Away (feat. Larry Joe Taylor and Dave Perez)
TTITLE12=One Ride in Vegas (feat. Cody Johnson)
TTITLE13=Things Are Fixin' to Get Real Good (feat. Pat Green)
EXTD=
EXTT0=
EXTT1=
EXTT2=
EXTT3=
EXTT4=
EXTT5=
EXTT6=
EXTT7=
EXTT8=
EXTT9=
EXTT10=
EXTT11=
EXTT12=
EXTT13=
PLAYORDER=
